<svg width="221" height="61" viewBox="0 0 221 61" fill="none" xmlns="http://www.w3.org/2000/svg">
<path d="M67.9153 43.096V11.1326H74.7441V14.9774C75.777 13.7723 76.8674 12.9116 77.9577 12.3377C79.6218 11.5343 81.3434 11.1326 83.2371 11.1326C86.9097 11.1326 90.0085 12.5673 92.5334 15.4365C92.7629 15.7234 92.9351 15.8382 92.9351 15.8382C93.8532 17.1007 94.4845 18.5927 94.8288 20.1994C95.1731 21.8062 95.3452 24.1016 95.3452 27.0282V43.0386H87.8852V28.4055C87.8852 24.7328 87.4835 22.2079 86.6228 20.8881C86.1637 20.1421 85.4177 19.5108 84.5569 19.0517C83.6388 18.5927 82.7206 18.3631 81.6877 18.3631C80.6547 18.3631 79.6218 18.5927 78.7037 19.1091C77.7855 19.6256 77.0395 20.2568 76.523 21.1176C76.064 21.8636 75.7197 22.7817 75.5475 23.8721C75.3753 24.9624 75.2606 26.6839 75.2606 29.0367V43.0386H67.9153V43.096Z" fill="black"/>
<path d="M101.485 43.096V11.1326H108.888L108.945 43.096H101.485Z" fill="black"/>
<path d="M124.841 43.096L111.872 11.1326H120.135L127.309 31.4469L134.482 11.1326H142.745L129.833 43.096H124.841Z" fill="black"/>
<path d="M174.135 30.3565H150.664C151.181 31.6764 151.754 32.6519 152.328 33.2832C153.992 35.1195 156.116 36.0376 158.755 36.0376C160.247 36.0376 161.682 35.7507 162.944 35.1769C163.805 34.7752 164.609 34.2013 165.412 33.4553H173.446C172.643 35.349 171.782 36.7836 170.749 37.8739C169.199 39.5381 167.363 40.8006 165.24 41.7761C163.117 42.6943 160.993 43.1533 158.813 43.1533C155.944 43.1533 153.304 42.4647 150.894 41.0301C148.484 39.5955 146.532 37.6444 145.098 35.2342C143.663 32.7667 142.975 30.127 142.975 27.3151C142.975 24.3885 143.721 21.6914 145.098 19.2239C146.532 16.7564 148.484 14.8053 150.894 13.3133C153.361 11.8786 156.001 11.1326 158.87 11.1326C161.625 11.1326 164.207 11.8213 166.617 13.2559C169.027 14.6905 170.921 16.5842 172.356 18.9944C173.79 21.4045 174.479 23.9868 174.479 26.7413C174.479 27.3151 174.364 28.2333 174.192 29.6679L174.135 30.3565ZM150.549 23.9294H167.191C166.732 22.667 166.158 21.6914 165.469 21.0028C163.805 19.1665 161.625 18.2484 158.985 18.2484C156.23 18.2484 153.935 19.2813 152.099 21.2897C151.468 21.9784 150.951 22.8391 150.549 23.9294Z" fill="black"/>
<path d="M180.275 43.096V17.6745H177.635V11.1326H180.275C180.447 9.00941 180.849 7.34525 181.422 6.08278C181.939 4.8777 182.685 3.78739 183.546 2.86924C184.406 1.95108 185.439 1.26247 186.587 0.746004C187.735 0.229541 188.882 0 190.087 0H190.432L192.096 0.114768V7.5174C190.776 7.5174 190.202 7.57479 189.628 7.80433C188.997 7.97648 188.595 8.32079 188.309 8.83725C188.022 9.35372 187.849 10.0997 187.735 11.19H192.039V17.7319H187.735V43.1533L180.275 43.096Z" fill="black"/>
<path d="M53.3396 11.19V37.0132C53.3396 41.1449 52.8805 44.1863 51.9624 46.0226C50.6999 48.5475 48.6914 49.9821 45.8796 50.3838H44.904C42.1496 49.9821 40.1411 48.4901 38.8213 46.0226C37.9031 44.1289 37.444 41.1449 37.444 37.0132L37.5588 11.19H27V40.2267C27 44.1289 27.2869 47.0555 27.8608 49.064C28.4346 51.0724 29.5249 52.9661 31.1891 54.8598C34.8617 58.9341 39.3377 61 45.0188 61H45.937C51.5607 61 56.0941 58.9341 59.7667 54.8598C61.4309 52.9661 62.5212 51.0724 63.095 49.064C63.6689 47.1129 63.9558 44.1289 63.9558 40.2267L64.0132 11.19H53.3396Z" fill="black"/>
<path d="M192.039 45.5061L67.858 45.334C67.858 45.334 66.5381 57.3274 56.0941 60.9426L192.039 45.5061Z" fill="black"/>
</svg>
