<svg width="32" height="35" viewBox="0 0 32 35" fill="none" xmlns="http://www.w3.org/2000/svg">
<path d="M21.5023 0V18.1452C21.5023 21.0484 21.1798 23.1855 20.5349 24.4758C19.6481 26.25 18.2372 27.2581 16.262 27.5403H15.5767C13.6419 27.2581 12.231 26.2097 11.3039 24.4758C10.6589 23.1452 10.3364 21.0484 10.3364 18.1452L10.4171 0H3V20.4032C3 23.1452 3.20155 25.2016 3.60465 26.6129C4.00775 28.0242 4.77364 29.3548 5.94264 30.6855C8.52248 33.5484 11.6667 35 15.6574 35H16.3023C20.2527 35 23.4372 33.5484 26.0171 30.6855C27.186 29.3548 27.9519 28.0242 28.355 26.6129C28.7581 25.2419 28.9597 23.1452 28.9597 20.4032L29 0H21.5023Z" fill="black"/>
</svg>
